<!--?xml version="1.0" encoding="UTF-8" standalone="no"?-->

<!-- Generated by graphviz version 2.28.0 (20110507.0327)
 -->
<!-- Title: _anonymous_0 Pages: 1 -->
<svg width="511pt" height="494pt" viewBox="0.00 0.00 511.00 494.00" xmlns="http://www.w3.org/2000/svg" xmlns:xlink="http://www.w3.org/1999/xlink">
<g id="graph1" class="graph" transform="scale(1 1) rotate(0) translate(4 490)">
<title>_anonymous_0</title>
<polygon fill="white" stroke="white" points="-4,5 -4,-490 508,-490 508,5 -4,5"></polygon>
<!-- Consultant -->
<g id="node1" class="node"><title>Consultant</title>
<ellipse fill="none" stroke="black" cx="307" cy="-468" rx="52.3271" ry="18"></ellipse>
<text text-anchor="middle" x="307" y="-463.8" font-family="Times,serif" font-size="14.00">Consultant</text>
</g>
<!-- Engagement -->
<g id="node3" class="node"><title>Engagement</title>
<ellipse fill="none" stroke="black" cx="443" cy="-378" rx="58.9598" ry="18"></ellipse>
<text text-anchor="middle" x="443" y="-373.8" font-family="Times,serif" font-size="14.00">Engagement</text>
</g>
<!-- Consultant&#45;&gt;Engagement -->
<g id="edge2" class="edge"><title>Consultant-&gt;Engagement</title>
<path fill="none" stroke="black" d="M330.379,-451.872C352.43,-437.604 385.688,-416.084 410.351,-400.126"></path>
<polygon fill="black" stroke="black" points="412.518,-402.892 419.012,-394.521 408.715,-397.015 412.518,-402.892"></polygon>
<text text-anchor="middle" x="419.875" y="-418.8" font-family="Times,serif" font-size="14.00">engagedOn</text>
</g>
<!-- Sentiment -->
<g id="node7" class="node"><title>Sentiment</title>
<ellipse fill="none" stroke="black" cx="171" cy="-378" rx="50.2979" ry="18"></ellipse>
<text text-anchor="middle" x="171" y="-373.8" font-family="Times,serif" font-size="14.00">Sentiment</text>
</g>
<!-- Consultant&#45;&gt;Sentiment -->
<g id="edge6" class="edge"><title>Consultant-&gt;Sentiment</title>
<path fill="none" stroke="black" d="M283.621,-451.872C261.435,-437.517 227.904,-415.82 203.196,-399.833"></path>
<polygon fill="black" stroke="black" points="204.826,-396.719 194.529,-394.225 201.024,-402.596 204.826,-396.719"></polygon>
<text text-anchor="middle" x="268.72" y="-418.8" font-family="Times,serif" font-size="14.00">FELT</text>
</g>
<!-- Observation -->
<g id="node9" class="node"><title>Observation</title>
<ellipse fill="none" stroke="black" cx="307" cy="-378" rx="58.3498" ry="18"></ellipse>
<text text-anchor="middle" x="307" y="-373.8" font-family="Times,serif" font-size="14.00">Observation</text>
</g>
<!-- Consultant&#45;&gt;Observation -->
<g id="edge8" class="edge"><title>Consultant-&gt;Observation</title>
<path fill="none" stroke="black" d="M307,-449.614C307,-437.24 307,-420.369 307,-406.22"></path>
<polygon fill="black" stroke="black" points="310.5,-406.05 307,-396.05 303.5,-406.05 310.5,-406.05"></polygon>
<text text-anchor="middle" x="327.605" y="-418.8" font-family="Times,serif" font-size="14.00">MADE</text>
</g>
<!-- Client -->
<g id="node5" class="node"><title>Client</title>
<ellipse fill="none" stroke="black" cx="351" cy="-288" rx="34.4636" ry="18"></ellipse>
<text text-anchor="middle" x="351" y="-283.8" font-family="Times,serif" font-size="14.00">Client</text>
</g>
<!-- Engagement&#45;&gt;Client -->
<g id="edge4" class="edge"><title>Engagement-&gt;Client</title>
<path fill="none" stroke="black" d="M435.363,-359.743C429.795,-348.575 421.414,-334.258 411,-324 403.59,-316.701 394.362,-310.347 385.383,-305.131"></path>
<polygon fill="black" stroke="black" points="387.015,-302.034 376.563,-300.3 383.652,-308.173 387.015,-302.034"></polygon>
<text text-anchor="middle" x="437.444" y="-328.8" font-family="Times,serif" font-size="14.00">with</text>
</g>
<!-- Sentiment&#45;&gt;Client -->
<g id="edge16" class="edge"><title>Sentiment-&gt;Client</title>
<path fill="none" stroke="black" d="M200.947,-363.326C212.626,-357.436 225.857,-350.052 237,-342 246.375,-335.226 245.983,-330.125 255.794,-324 272.652,-313.476 293.149,-305.429 310.799,-299.72"></path>
<polygon fill="black" stroke="black" points="312.292,-302.923 320.814,-296.628 310.227,-296.234 312.292,-302.923"></polygon>
<text text-anchor="middle" x="290.603" y="-328.8" font-family="Times,serif" font-size="14.00">TOWARDS</text>
</g>
<!-- Mood -->
<g id="node12" class="node"><title>Mood</title>
<ellipse fill="none" stroke="black" cx="178" cy="-288" rx="34.1591" ry="18"></ellipse>
<text text-anchor="middle" x="178" y="-283.8" font-family="Times,serif" font-size="14.00">Mood</text>
</g>
<!-- Sentiment&#45;&gt;Mood -->
<g id="edge12" class="edge"><title>Sentiment-&gt;Mood</title>
<path fill="none" stroke="black" d="M170.917,-359.781C171.006,-349.397 171.368,-335.916 172.47,-324 172.708,-321.427 173.016,-318.757 173.366,-316.089"></path>
<polygon fill="black" stroke="black" points="176.853,-316.44 174.857,-306.034 169.928,-315.413 176.853,-316.44"></polygon>
<text text-anchor="middle" x="205.265" y="-328.8" font-family="Times,serif" font-size="14.00">EMOTION</text>
</g>
<!-- Tag -->
<g id="node14" class="node"><title>Tag</title>
<ellipse fill="none" stroke="black" cx="27" cy="-288" rx="27" ry="18"></ellipse>
<text text-anchor="middle" x="27" y="-283.8" font-family="Times,serif" font-size="14.00">Tag</text>
</g>
<!-- Sentiment&#45;&gt;Tag -->
<g id="edge14" class="edge"><title>Sentiment-&gt;Tag</title>
<path fill="none" stroke="black" d="M128.021,-368.558C108.285,-363.219 85.3514,-354.83 67.4684,-342 57.2418,-334.663 48.4026,-323.999 41.6168,-314.157"></path>
<polygon fill="black" stroke="black" points="44.3596,-311.954 35.9814,-305.469 38.4868,-315.763 44.3596,-311.954"></polygon>
<text text-anchor="middle" x="96.7658" y="-328.8" font-family="Times,serif" font-size="14.00">TAGGED</text>
</g>
<!-- Day -->
<g id="node17" class="node"><title>Day</title>
<ellipse fill="none" stroke="black" cx="99" cy="-288" rx="27.1849" ry="18"></ellipse>
<text text-anchor="middle" x="99" y="-283.8" font-family="Times,serif" font-size="14.00">Day</text>
</g>
<!-- Sentiment&#45;&gt;Day -->
<g id="edge18" class="edge"><title>Sentiment-&gt;Day</title>
<path fill="none" stroke="black" d="M157.457,-360.448C146.321,-346.837 130.412,-327.392 118.001,-312.223"></path>
<polygon fill="black" stroke="black" points="120.56,-309.823 111.518,-304.3 115.142,-314.256 120.56,-309.823"></polygon>
<text text-anchor="middle" x="151.33" y="-328.8" font-family="Times,serif" font-size="14.00">AT</text>
</g>
<!-- Observation&#45;&gt;Client -->
<g id="edge10" class="edge"><title>Observation-&gt;Client</title>
<path fill="none" stroke="black" d="M318.33,-360.246C321.95,-354.572 325.835,-348.12 329,-342 333.342,-333.604 337.488,-324.152 340.986,-315.58"></path>
<polygon fill="black" stroke="black" points="344.337,-316.623 344.768,-306.037 337.829,-314.044 344.337,-316.623"></polygon>
<text text-anchor="middle" x="372.603" y="-328.8" font-family="Times,serif" font-size="14.00">TOWARDS</text>
</g>
<!-- Month -->
<g id="node19" class="node"><title>Month</title>
<ellipse fill="none" stroke="black" cx="99" cy="-198" rx="36.1879" ry="18"></ellipse>
<text text-anchor="middle" x="99" y="-193.8" font-family="Times,serif" font-size="14.00">Month</text>
</g>
<!-- Day&#45;&gt;Month -->
<g id="edge20" class="edge"><title>Day-&gt;Month</title>
<path fill="none" stroke="black" d="M99,-269.614C99,-257.24 99,-240.369 99,-226.22"></path>
<polygon fill="black" stroke="black" points="102.5,-226.05 99,-216.05 95.5001,-226.05 102.5,-226.05"></polygon>
<text text-anchor="middle" x="108.33" y="-238.8" font-family="Times,serif" font-size="14.00">AT</text>
</g>
<!-- Year -->
<g id="node21" class="node"><title>Year</title>
<ellipse fill="none" stroke="black" cx="99" cy="-108" rx="29.1982" ry="18"></ellipse>
<text text-anchor="middle" x="99" y="-103.8" font-family="Times,serif" font-size="14.00">Year</text>
</g>
<!-- Month&#45;&gt;Year -->
<g id="edge22" class="edge"><title>Month-&gt;Year</title>
<path fill="none" stroke="black" d="M99,-179.614C99,-167.24 99,-150.369 99,-136.22"></path>
<polygon fill="black" stroke="black" points="102.5,-136.05 99,-126.05 95.5001,-136.05 102.5,-136.05"></polygon>
<text text-anchor="middle" x="108.33" y="-148.8" font-family="Times,serif" font-size="14.00">AT</text>
</g>
<!-- Calendar -->
<g id="node23" class="node"><title>Calendar</title>
<ellipse fill="none" stroke="black" cx="99" cy="-18" rx="45.3397" ry="18"></ellipse>
<text text-anchor="middle" x="99" y="-13.8" font-family="Times,serif" font-size="14.00">Calendar</text>
</g>
<!-- Year&#45;&gt;Calendar -->
<g id="edge24" class="edge"><title>Year-&gt;Calendar</title>
<path fill="none" stroke="black" d="M99,-89.614C99,-77.2403 99,-60.3686 99,-46.2198"></path>
<polygon fill="black" stroke="black" points="102.5,-46.0504 99,-36.0504 95.5001,-46.0504 102.5,-46.0504"></polygon>
<text text-anchor="middle" x="108.33" y="-58.8" font-family="Times,serif" font-size="14.00">AT</text>
</g>
</g>
</svg>